<svg width="16" height="16" viewBox="0 0 16 16" fill="none" xmlns="http://www.w3.org/2000/svg">
<path fill-rule="evenodd" clip-rule="evenodd" d="M7.89081 0.5C3.75906 0.5 0.410309 3.84875 0.410309 7.9805C0.410309 11.285 2.55306 14.0893 5.52606 15.0793C5.90031 15.1468 6.03531 14.9165 6.03531 14.7185C6.03531 14.5408 6.02931 14.0698 6.02706 13.4465C3.94581 13.898 3.50631 12.443 3.50631 12.443C3.16731 11.579 2.67606 11.3488 2.67606 11.3488C1.99731 10.8845 2.72781 10.895 2.72781 10.895C3.47931 10.9475 3.87306 11.666 3.87306 11.666C4.54056 12.809 5.62506 12.479 6.04956 12.2878C6.11781 11.804 6.31281 11.474 6.52581 11.2873C4.86531 11.099 3.11931 10.457 3.11931 7.58975C3.11931 6.7745 3.41106 6.1055 3.88731 5.5835C3.81156 5.39375 3.55281 4.6325 3.96156 3.6035C3.96156 3.6035 4.58931 3.40175 6.01806 4.36925C6.62825 4.20325 7.25769 4.11852 7.89006 4.11725C8.52244 4.11828 9.15191 4.20301 9.76206 4.36925C11.1916 3.401 11.8186 3.6035 11.8186 3.6035C12.2273 4.6325 11.9708 5.39375 11.8928 5.5835C12.3728 6.1055 12.6608 6.77375 12.6608 7.58975C12.6608 10.4645 10.9133 11.096 9.24681 11.2813C9.51306 11.5123 9.75306 11.9683 9.75306 12.6658C9.75306 13.6663 9.74406 14.4733 9.74406 14.7185C9.74406 14.9188 9.87756 15.1513 10.2593 15.0778C13.2308 14.0863 15.3713 11.2843 15.3713 7.9805C15.3713 3.84875 12.0226 0.5 7.89081 0.5Z" fill="white"/>
</svg>
