<svg width="19" height="18" viewBox="0 0 19 18" fill="none" xmlns="http://www.w3.org/2000/svg">
<path d="M12.5392 2.25C11.2342 2.25 9.98168 2.8575 9.16418 3.8175C8.34668 2.8575 7.09418 2.25 5.78918 2.25C3.47918 2.25 1.66418 4.065 1.66418 6.375C1.66418 9.21 4.21418 11.52 8.07668 15.03L9.16418 16.0125L10.2517 15.0225C14.1142 11.52 16.6642 9.21 16.6642 6.375C16.6642 4.065 14.8492 2.25 12.5392 2.25ZM9.23918 13.9125L9.16418 13.9875L9.08918 13.9125C5.51918 10.68 3.16418 8.5425 3.16418 6.375C3.16418 4.875 4.28918 3.75 5.78918 3.75C6.94418 3.75 8.06918 4.4925 8.46668 5.52H9.86918C10.2592 4.4925 11.3842 3.75 12.5392 3.75C14.0392 3.75 15.1642 4.875 15.1642 6.375C15.1642 8.5425 12.8092 10.68 9.23918 13.9125Z" fill="white"/>
</svg>
