<svg width="27" height="28" viewBox="0 0 27 28" fill="none" xmlns="http://www.w3.org/2000/svg">
<path fill-rule="evenodd" clip-rule="evenodd" d="M13.4519 2.84607C7.30722 2.84607 2.32703 7.82626 2.32703 13.9709C2.32703 18.8853 5.51368 23.0557 9.93507 24.528C10.4916 24.6284 10.6924 24.286 10.6924 23.9915C10.6924 23.7272 10.6835 23.0267 10.6801 22.0998C7.58495 22.7713 6.93133 20.6075 6.93133 20.6075C6.42718 19.3225 5.6966 18.9801 5.6966 18.9801C4.68718 18.2897 5.77357 18.3053 5.77357 18.3053C6.89118 18.3834 7.47676 19.4519 7.47676 19.4519C8.46945 21.1518 10.0823 20.661 10.7136 20.3766C10.8151 19.6571 11.1051 19.1664 11.4219 18.8886C8.95241 18.6087 6.3558 17.6539 6.3558 13.3898C6.3558 12.1774 6.78968 11.1825 7.49795 10.4061C7.3853 10.124 7.00049 8.99184 7.60837 7.46153C7.60837 7.46153 8.54195 7.16149 10.6668 8.60034C11.5742 8.35347 12.5103 8.22746 13.4508 8.22557C14.3912 8.2271 15.3274 8.35311 16.2348 8.60034C18.3607 7.16038 19.2931 7.46153 19.2931 7.46153C19.901 8.99184 19.5196 10.124 19.4036 10.4061C20.1174 11.1825 20.5457 12.1763 20.5457 13.3898C20.5457 17.6651 17.9469 18.6042 15.4685 18.8797C15.8644 19.2233 16.2214 19.9014 16.2214 20.9387C16.2214 22.4266 16.208 23.6268 16.208 23.9915C16.208 24.2893 16.4065 24.6351 16.9743 24.5258C21.3934 23.0513 24.5767 18.8842 24.5767 13.9709C24.5767 7.82626 19.5965 2.84607 13.4519 2.84607Z" fill="white"/>
</svg>
