<svg width="29" height="28" viewBox="0 0 29 28" fill="none" xmlns="http://www.w3.org/2000/svg">
<path fill-rule="evenodd" clip-rule="evenodd" d="M14.2609 2.38464C7.90436 2.38464 2.75244 7.53657 2.75244 13.8931C2.75244 18.977 6.04898 23.2912 10.6228 24.8143C11.1986 24.9181 11.4063 24.5639 11.4063 24.2593C11.4063 23.9858 11.3971 23.2612 11.3936 22.3023C8.19167 22.997 7.51552 20.7585 7.51552 20.7585C6.99398 19.4293 6.23821 19.075 6.23821 19.075C5.19398 18.3608 6.31783 18.377 6.31783 18.377C7.47398 18.4577 8.07975 19.5631 8.07975 19.5631C9.10667 21.3216 10.7751 20.8139 11.4282 20.5196C11.5332 19.7754 11.8332 19.2677 12.1609 18.9804C9.60629 18.6908 6.92013 17.7031 6.92013 13.292C6.92013 12.0377 7.36898 11.0085 8.10167 10.2054C7.98513 9.91349 7.58706 8.74234 8.2159 7.15926C8.2159 7.15926 9.18167 6.84887 11.3797 8.33734C12.3185 8.08196 13.2869 7.9516 14.2597 7.94964C15.2327 7.95122 16.2011 8.08158 17.1397 8.33734C19.339 6.84772 20.3036 7.15926 20.3036 7.15926C20.9324 8.74234 20.5378 9.91349 20.4178 10.2054C21.1563 11.0085 21.5994 12.0366 21.5994 13.292C21.5994 17.7146 18.9109 18.6862 16.3471 18.9712C16.7567 19.3266 17.1259 20.0281 17.1259 21.1012C17.1259 22.6404 17.1121 23.882 17.1121 24.2593C17.1121 24.5673 17.3174 24.925 17.9047 24.812C22.4763 23.2866 25.7694 18.9758 25.7694 13.8931C25.7694 7.53657 20.6174 2.38464 14.2609 2.38464Z" fill="white"/>
</svg>
