<svg width="28" height="28" viewBox="0 0 28 28" fill="none" xmlns="http://www.w3.org/2000/svg">
<path d="M24.86 11.8154H23.9616V11.7691H13.9231V16.2307H20.2267C19.3071 18.8279 16.836 20.6922 13.9231 20.6922C10.2273 20.6922 7.23083 17.6957 7.23083 13.9999C7.23083 10.3041 10.2273 7.30761 13.9231 7.30761C15.6291 7.30761 17.1812 7.95118 18.3629 9.00243L21.5178 5.84757C19.5257 3.99101 16.8611 2.84607 13.9231 2.84607C7.76342 2.84607 2.76929 7.8402 2.76929 13.9999C2.76929 20.1596 7.76342 25.1538 13.9231 25.1538C20.0828 25.1538 25.077 20.1596 25.077 13.9999C25.077 13.2521 25 12.522 24.86 11.8154Z" fill="#FFC107"/>
<path d="M4.05548 8.80836L7.72008 11.4959C8.71165 9.04092 11.1131 7.30761 13.9233 7.30761C15.6293 7.30761 17.1813 7.95118 18.3631 9.00243L21.5179 5.84757C19.5259 3.99101 16.8612 2.84607 13.9233 2.84607C9.6391 2.84607 5.92375 5.26478 4.05548 8.80836Z" fill="#FF3D00"/>
<path d="M13.923 25.1538C16.804 25.1538 19.4218 24.0513 21.4011 22.2583L17.949 19.3371C16.8291 20.1853 15.4371 20.6923 13.923 20.6923C11.0219 20.6923 8.55856 18.8424 7.63056 16.2609L3.99329 19.0633C5.83925 22.6754 9.58806 25.1538 13.923 25.1538Z" fill="#4CAF50"/>
<path d="M24.86 11.8155H23.9616V11.7692H13.9231V16.2307H20.2267C19.785 17.4783 18.9825 18.554 17.9474 19.3376C17.948 19.337 17.9485 19.337 17.9491 19.3365L21.4012 22.2577C21.1569 22.4796 25.0769 19.5769 25.0769 13.9999C25.0769 13.2521 25 12.522 24.86 11.8155Z" fill="#1976D2"/>
</svg>
