<svg width="296" height="152" viewBox="0 0 296 152" fill="none" xmlns="http://www.w3.org/2000/svg">
<g filter="url(#filter0_d_627_1900)">
<rect x="12" y="6" width="272" height="128" rx="6" fill="white"/>
<rect x="12.5" y="6.5" width="271" height="127" rx="5.5" stroke="black" stroke-opacity="0.05"/>
</g>
<g filter="url(#filter1_d_627_1900)">
<path d="M12 100H284V128C284 131.314 281.314 134 278 134H18C14.6863 134 12 131.314 12 128V100Z" fill="#464438"/>
</g>
<line opacity="0.1" x1="12" y1="99.5" x2="284" y2="99.5" stroke="black"/>
<path d="M236.463 124.013L235.375 123.023C231.513 119.52 228.963 117.21 228.963 114.375C228.963 112.065 230.778 110.25 233.088 110.25C234.393 110.25 235.645 110.858 236.463 111.818C237.28 110.858 238.533 110.25 239.838 110.25C242.148 110.25 243.963 112.065 243.963 114.375C243.963 117.21 241.413 119.52 237.55 123.03L236.463 124.013Z" fill="#D3FA3A"/>
<path d="M258.811 120.461V121.5H252.297V120.591L255.557 116.961C255.958 116.514 256.268 116.136 256.487 115.826C256.71 115.512 256.865 115.231 256.952 114.985C257.043 114.735 257.089 114.479 257.089 114.22C257.089 113.892 257.02 113.595 256.884 113.331C256.751 113.062 256.555 112.848 256.296 112.688C256.036 112.529 255.721 112.449 255.352 112.449C254.91 112.449 254.541 112.536 254.245 112.709C253.953 112.878 253.735 113.115 253.589 113.42C253.443 113.725 253.37 114.076 253.37 114.473H252.105C252.105 113.912 252.228 113.399 252.474 112.935C252.721 112.47 253.085 112.101 253.568 111.827C254.051 111.549 254.646 111.41 255.352 111.41C255.981 111.41 256.519 111.522 256.966 111.745C257.412 111.964 257.754 112.274 257.991 112.675C258.233 113.071 258.353 113.536 258.353 114.069C258.353 114.361 258.303 114.657 258.203 114.958C258.107 115.254 257.973 115.55 257.8 115.847C257.631 116.143 257.433 116.435 257.205 116.722C256.982 117.009 256.742 117.291 256.487 117.569L253.821 120.461H258.811ZM262.011 115.901H262.913C263.355 115.901 263.72 115.828 264.007 115.683C264.298 115.532 264.515 115.329 264.656 115.074C264.802 114.814 264.875 114.523 264.875 114.199C264.875 113.816 264.811 113.495 264.683 113.235C264.556 112.976 264.364 112.78 264.109 112.647C263.854 112.515 263.53 112.449 263.138 112.449C262.783 112.449 262.469 112.52 262.195 112.661C261.926 112.798 261.714 112.994 261.559 113.249C261.409 113.504 261.334 113.805 261.334 114.151H260.069C260.069 113.646 260.197 113.185 260.452 112.771C260.707 112.356 261.065 112.025 261.525 111.779C261.99 111.533 262.528 111.41 263.138 111.41C263.74 111.41 264.266 111.517 264.718 111.731C265.169 111.941 265.52 112.256 265.77 112.675C266.021 113.09 266.146 113.607 266.146 114.227C266.146 114.477 266.087 114.746 265.969 115.033C265.855 115.316 265.675 115.58 265.429 115.826C265.187 116.072 264.873 116.275 264.485 116.435C264.098 116.59 263.633 116.667 263.091 116.667H262.011V115.901ZM262.011 116.94V116.182H263.091C263.724 116.182 264.248 116.257 264.663 116.407C265.078 116.558 265.403 116.758 265.64 117.009C265.882 117.259 266.051 117.535 266.146 117.836C266.247 118.132 266.297 118.428 266.297 118.725C266.297 119.189 266.217 119.602 266.057 119.962C265.902 120.322 265.681 120.627 265.394 120.878C265.112 121.129 264.779 121.318 264.396 121.445C264.013 121.573 263.596 121.637 263.145 121.637C262.712 121.637 262.305 121.575 261.922 121.452C261.543 121.329 261.208 121.151 260.917 120.919C260.625 120.682 260.397 120.393 260.233 120.051C260.069 119.704 259.987 119.31 259.987 118.868H261.252C261.252 119.215 261.327 119.518 261.477 119.777C261.632 120.037 261.851 120.24 262.134 120.386C262.421 120.527 262.758 120.598 263.145 120.598C263.533 120.598 263.865 120.532 264.143 120.399C264.426 120.263 264.642 120.058 264.793 119.784C264.948 119.511 265.025 119.167 265.025 118.752C265.025 118.337 264.939 117.998 264.765 117.733C264.592 117.465 264.346 117.266 264.027 117.139C263.713 117.007 263.341 116.94 262.913 116.94H262.011Z" fill="white"/>
<g clip-path="url(#clip0_627_1900)">
<path d="M186.687 121.5L191.187 117L186.687 112.5" stroke="white" stroke-width="2" stroke-linecap="round" stroke-linejoin="round"/>
<path d="M180.687 112.5L176.187 117L180.687 121.5" stroke="white" stroke-width="2" stroke-linecap="round" stroke-linejoin="round"/>
</g>
<path d="M205.762 115.73V117.248C205.762 118.064 205.689 118.752 205.543 119.312C205.397 119.873 205.188 120.324 204.914 120.666C204.641 121.008 204.31 121.256 203.923 121.411C203.54 121.562 203.107 121.637 202.624 121.637C202.241 121.637 201.888 121.589 201.564 121.493C201.241 121.397 200.949 121.245 200.689 121.035C200.434 120.821 200.216 120.543 200.033 120.201C199.851 119.859 199.712 119.445 199.616 118.957C199.521 118.469 199.473 117.9 199.473 117.248V115.73C199.473 114.915 199.546 114.231 199.691 113.68C199.842 113.128 200.054 112.686 200.327 112.354C200.601 112.016 200.929 111.775 201.312 111.629C201.699 111.483 202.132 111.41 202.61 111.41C202.998 111.41 203.353 111.458 203.677 111.554C204.005 111.645 204.297 111.793 204.552 111.998C204.807 112.199 205.023 112.467 205.201 112.805C205.384 113.137 205.523 113.545 205.618 114.028C205.714 114.511 205.762 115.079 205.762 115.73ZM204.49 117.453V115.519C204.49 115.072 204.463 114.68 204.408 114.343C204.358 114.001 204.283 113.709 204.183 113.468C204.082 113.226 203.955 113.03 203.8 112.88C203.649 112.729 203.474 112.62 203.273 112.552C203.078 112.479 202.856 112.442 202.61 112.442C202.31 112.442 202.043 112.499 201.811 112.613C201.578 112.723 201.382 112.898 201.223 113.14C201.068 113.381 200.949 113.698 200.867 114.09C200.785 114.482 200.744 114.958 200.744 115.519V117.453C200.744 117.9 200.769 118.294 200.819 118.636C200.874 118.978 200.954 119.274 201.059 119.524C201.163 119.771 201.291 119.973 201.441 120.133C201.592 120.292 201.765 120.411 201.961 120.488C202.162 120.561 202.383 120.598 202.624 120.598C202.934 120.598 203.205 120.538 203.438 120.42C203.67 120.301 203.864 120.117 204.019 119.866C204.178 119.611 204.297 119.285 204.374 118.889C204.452 118.488 204.49 118.009 204.49 117.453ZM213.91 120.461V121.5H207.396V120.591L210.656 116.961C211.057 116.514 211.367 116.136 211.586 115.826C211.809 115.512 211.964 115.231 212.051 114.985C212.142 114.735 212.188 114.479 212.188 114.22C212.188 113.892 212.119 113.595 211.982 113.331C211.85 113.062 211.654 112.848 211.395 112.688C211.135 112.529 210.82 112.449 210.451 112.449C210.009 112.449 209.64 112.536 209.344 112.709C209.052 112.878 208.833 113.115 208.688 113.42C208.542 113.725 208.469 114.076 208.469 114.473H207.204C207.204 113.912 207.327 113.399 207.573 112.935C207.819 112.47 208.184 112.101 208.667 111.827C209.15 111.549 209.745 111.41 210.451 111.41C211.08 111.41 211.618 111.522 212.064 111.745C212.511 111.964 212.853 112.274 213.09 112.675C213.331 113.071 213.452 113.536 213.452 114.069C213.452 114.361 213.402 114.657 213.302 114.958C213.206 115.254 213.072 115.55 212.898 115.847C212.73 116.143 212.532 116.435 212.304 116.722C212.08 117.009 211.841 117.291 211.586 117.569L208.92 120.461H213.91Z" fill="white"/>
<path d="M37.9851 111C36.3276 111 34.9851 112.342 34.9851 114C34.9851 115.658 36.3276 117 37.9851 117C39.6426 117 40.9851 115.658 40.9851 114C40.9851 112.342 39.6426 111 37.9851 111ZM37.9851 117.75C35.9826 117.75 31.9851 118.755 31.9851 120.75V123H43.9851V120.75C43.9851 118.755 39.9876 117.75 37.9851 117.75Z" fill="white"/>
<path d="M55.4597 111.547V121.5H54.1404V111.547H55.4597ZM59.6296 116.024V117.104H55.1726V116.024H59.6296ZM60.3064 111.547V112.627H55.1726V111.547H60.3064ZM63.0612 114.104V121.5H61.7898V114.104H63.0612ZM61.6941 112.142C61.6941 111.937 61.7556 111.763 61.8786 111.622C62.0062 111.481 62.1931 111.41 62.4392 111.41C62.6807 111.41 62.8653 111.481 62.9929 111.622C63.1251 111.763 63.1911 111.937 63.1911 112.142C63.1911 112.338 63.1251 112.506 62.9929 112.647C62.8653 112.784 62.6807 112.853 62.4392 112.853C62.1931 112.853 62.0062 112.784 61.8786 112.647C61.7556 112.506 61.6941 112.338 61.6941 112.142ZM66.4655 111V121.5H65.1941V111H66.4655ZM69.8698 114.104V121.5H68.5984V114.104H69.8698ZM68.5027 112.142C68.5027 111.937 68.5642 111.763 68.6872 111.622C68.8148 111.481 69.0017 111.41 69.2478 111.41C69.4893 111.41 69.6739 111.481 69.8015 111.622C69.9336 111.763 69.9997 111.937 69.9997 112.142C69.9997 112.338 69.9336 112.506 69.8015 112.647C69.6739 112.784 69.4893 112.853 69.2478 112.853C69.0017 112.853 68.8148 112.784 68.6872 112.647C68.5642 112.506 68.5027 112.338 68.5027 112.142ZM73.1648 115.525V124.344H71.8933V114.104H73.0554L73.1648 115.525ZM78.1482 117.74V117.884C78.1482 118.422 78.0844 118.921 77.9568 119.381C77.8292 119.837 77.6423 120.233 77.3962 120.57C77.1547 120.908 76.8562 121.17 76.5007 121.356C76.1452 121.543 75.7374 121.637 75.2771 121.637C74.8077 121.637 74.393 121.559 74.0329 121.404C73.6729 121.249 73.3676 121.024 73.1169 120.728C72.8663 120.431 72.6657 120.076 72.5154 119.661C72.3695 119.246 72.2693 118.779 72.2146 118.26V117.494C72.2693 116.947 72.3718 116.457 72.5222 116.024C72.6726 115.591 72.8708 115.222 73.1169 114.917C73.3676 114.607 73.6706 114.372 74.0261 114.213C74.3816 114.049 74.7917 113.967 75.2566 113.967C75.7214 113.967 76.1338 114.058 76.4939 114.24C76.8539 114.418 77.157 114.673 77.403 115.006C77.6491 115.339 77.8337 115.737 77.9568 116.202C78.0844 116.662 78.1482 117.175 78.1482 117.74ZM76.8767 117.884V117.74C76.8767 117.371 76.8379 117.025 76.7605 116.701C76.683 116.373 76.5622 116.086 76.3982 115.84C76.2387 115.589 76.0336 115.393 75.7829 115.252C75.5323 115.106 75.2338 115.033 74.8874 115.033C74.5684 115.033 74.2904 115.088 74.0534 115.197C73.821 115.307 73.6228 115.455 73.4587 115.642C73.2946 115.824 73.1602 116.034 73.0554 116.271C72.9551 116.503 72.8799 116.744 72.8298 116.995V118.766C72.9209 119.085 73.0486 119.385 73.2126 119.668C73.3767 119.946 73.5954 120.172 73.8689 120.345C74.1423 120.513 74.4864 120.598 74.9011 120.598C75.2429 120.598 75.5368 120.527 75.7829 120.386C76.0336 120.24 76.2387 120.042 76.3982 119.791C76.5622 119.54 76.683 119.253 76.7605 118.93C76.8379 118.602 76.8767 118.253 76.8767 117.884ZM82.8308 121.637C82.3158 121.637 81.8487 121.55 81.4294 121.377C81.0147 121.199 80.657 120.951 80.3562 120.632C80.0599 120.313 79.8321 119.935 79.6726 119.497C79.5131 119.06 79.4333 118.581 79.4333 118.062V117.774C79.4333 117.173 79.5222 116.637 79.6999 116.168C79.8777 115.694 80.1192 115.293 80.4245 114.965C80.7299 114.637 81.0762 114.388 81.4636 114.22C81.851 114.051 82.252 113.967 82.6667 113.967C83.1954 113.967 83.6511 114.058 84.0339 114.24C84.4213 114.423 84.738 114.678 84.9841 115.006C85.2302 115.329 85.4125 115.712 85.531 116.154C85.6495 116.592 85.7087 117.07 85.7087 117.59V118.157H80.1853V117.125H84.4441V117.029C84.4258 116.701 84.3575 116.382 84.239 116.072C84.1251 115.762 83.9428 115.507 83.6921 115.307C83.4415 115.106 83.0997 115.006 82.6667 115.006C82.3796 115.006 82.1153 115.067 81.8737 115.19C81.6322 115.309 81.4249 115.487 81.2517 115.724C81.0785 115.961 80.9441 116.25 80.8484 116.592C80.7527 116.934 80.7048 117.328 80.7048 117.774V118.062C80.7048 118.412 80.7527 118.743 80.8484 119.053C80.9486 119.358 81.0922 119.627 81.279 119.859C81.4704 120.092 81.7006 120.274 81.9695 120.406C82.2429 120.538 82.5528 120.604 82.8991 120.604C83.3458 120.604 83.724 120.513 84.0339 120.331C84.3438 120.149 84.615 119.905 84.8474 119.6L85.613 120.208C85.4535 120.45 85.2507 120.68 85.0046 120.898C84.7585 121.117 84.4555 121.295 84.0954 121.432C83.74 121.568 83.3184 121.637 82.8308 121.637ZM88.4499 115.266V121.5H87.1853V114.104H88.4157L88.4499 115.266ZM90.7605 114.062L90.7536 115.238C90.6488 115.215 90.5486 115.202 90.4529 115.197C90.3617 115.188 90.2569 115.184 90.1384 115.184C89.8467 115.184 89.5892 115.229 89.3659 115.32C89.1426 115.411 88.9535 115.539 88.7986 115.703C88.6436 115.867 88.5206 116.063 88.4294 116.291C88.3428 116.514 88.2859 116.76 88.2585 117.029L87.903 117.234C87.903 116.788 87.9463 116.368 88.0329 115.977C88.1241 115.585 88.2631 115.238 88.4499 114.938C88.6368 114.632 88.8737 114.395 89.1609 114.227C89.4525 114.053 89.7989 113.967 90.1999 113.967C90.2911 113.967 90.3959 113.978 90.5144 114.001C90.6329 114.019 90.7149 114.04 90.7605 114.062ZM94.862 121.637C94.3471 121.637 93.8799 121.55 93.4607 121.377C93.0459 121.199 92.6882 120.951 92.3874 120.632C92.0912 120.313 91.8633 119.935 91.7038 119.497C91.5443 119.06 91.4646 118.581 91.4646 118.062V117.774C91.4646 117.173 91.5534 116.637 91.7312 116.168C91.9089 115.694 92.1504 115.293 92.4558 114.965C92.7611 114.637 93.1075 114.388 93.4948 114.22C93.8822 114.051 94.2833 113.967 94.698 113.967C95.2266 113.967 95.6823 114.058 96.0652 114.24C96.4525 114.423 96.7693 114.678 97.0154 115.006C97.2614 115.329 97.4437 115.712 97.5622 116.154C97.6807 116.592 97.74 117.07 97.74 117.59V118.157H92.2165V117.125H96.4753V117.029C96.4571 116.701 96.3887 116.382 96.2702 116.072C96.1563 115.762 95.974 115.507 95.7234 115.307C95.4727 115.106 95.1309 115.006 94.698 115.006C94.4109 115.006 94.1465 115.067 93.905 115.19C93.6635 115.309 93.4561 115.487 93.2829 115.724C93.1098 115.961 92.9753 116.25 92.8796 116.592C92.7839 116.934 92.7361 117.328 92.7361 117.774V118.062C92.7361 118.412 92.7839 118.743 92.8796 119.053C92.9799 119.358 93.1234 119.627 93.3103 119.859C93.5017 120.092 93.7318 120.274 94.0007 120.406C94.2741 120.538 94.584 120.604 94.9304 120.604C95.377 120.604 95.7553 120.513 96.0652 120.331C96.3751 120.149 96.6462 119.905 96.8786 119.6L97.6443 120.208C97.4848 120.45 97.282 120.68 97.0359 120.898C96.7898 121.117 96.4867 121.295 96.1267 121.432C95.7712 121.568 95.3497 121.637 94.862 121.637ZM102.313 114.104V115.074H98.3142V114.104H102.313ZM99.6677 112.306H100.932V119.668C100.932 119.919 100.971 120.108 101.049 120.235C101.126 120.363 101.226 120.447 101.349 120.488C101.472 120.529 101.605 120.55 101.746 120.55C101.851 120.55 101.96 120.541 102.074 120.522C102.192 120.5 102.281 120.481 102.341 120.468L102.347 121.5C102.247 121.532 102.115 121.562 101.951 121.589C101.791 121.621 101.598 121.637 101.37 121.637C101.06 121.637 100.775 121.575 100.515 121.452C100.256 121.329 100.048 121.124 99.8933 120.837C99.7429 120.545 99.6677 120.153 99.6677 119.661V112.306ZM105.061 111V121.5H103.797V111H105.061ZM104.76 117.521L104.234 117.501C104.239 116.995 104.314 116.528 104.46 116.1C104.606 115.667 104.811 115.291 105.075 114.972C105.339 114.653 105.654 114.407 106.018 114.233C106.387 114.056 106.795 113.967 107.242 113.967C107.606 113.967 107.935 114.017 108.226 114.117C108.518 114.213 108.766 114.368 108.971 114.582C109.181 114.796 109.341 115.074 109.45 115.416C109.559 115.753 109.614 116.166 109.614 116.653V121.5H108.342V116.64C108.342 116.252 108.286 115.942 108.172 115.71C108.058 115.473 107.891 115.302 107.673 115.197C107.454 115.088 107.185 115.033 106.866 115.033C106.551 115.033 106.264 115.099 106.005 115.231C105.749 115.364 105.528 115.546 105.342 115.778C105.159 116.011 105.016 116.277 104.911 116.578C104.811 116.874 104.76 117.189 104.76 117.521ZM112.882 114.104V121.5H111.61V114.104H112.882ZM111.514 112.142C111.514 111.937 111.576 111.763 111.699 111.622C111.827 111.481 112.013 111.41 112.259 111.41C112.501 111.41 112.686 111.481 112.813 111.622C112.945 111.763 113.011 111.937 113.011 112.142C113.011 112.338 112.945 112.506 112.813 112.647C112.686 112.784 112.501 112.853 112.259 112.853C112.013 112.853 111.827 112.784 111.699 112.647C111.576 112.506 111.514 112.338 111.514 112.142ZM116.176 115.683V121.5H114.912V114.104H116.108L116.176 115.683ZM115.876 117.521L115.349 117.501C115.354 116.995 115.429 116.528 115.575 116.1C115.721 115.667 115.926 115.291 116.19 114.972C116.454 114.653 116.769 114.407 117.134 114.233C117.503 114.056 117.911 113.967 118.357 113.967C118.722 113.967 119.05 114.017 119.342 114.117C119.633 114.213 119.882 114.368 120.087 114.582C120.296 114.796 120.456 115.074 120.565 115.416C120.675 115.753 120.729 116.166 120.729 116.653V121.5H119.458V116.64C119.458 116.252 119.401 115.942 119.287 115.71C119.173 115.473 119.007 115.302 118.788 115.197C118.569 115.088 118.3 115.033 117.981 115.033C117.667 115.033 117.38 115.099 117.12 115.231C116.865 115.364 116.644 115.546 116.457 115.778C116.274 116.011 116.131 116.277 116.026 116.578C115.926 116.874 115.876 117.189 115.876 117.521ZM123.922 111V121.5H122.65V111H123.922ZM128.44 114.104L125.214 117.556L123.409 119.429L123.306 118.082L124.598 116.537L126.895 114.104H128.44ZM127.285 121.5L124.646 117.973L125.302 116.845L128.775 121.5H127.285Z" fill="white"/>
<path d="M34.7651 26.9091H36.7338V36.1903C36.7338 37.0298 36.5676 37.7479 36.2353 38.3445C35.9071 38.9411 35.4448 39.397 34.8482 39.7124C34.2516 40.0234 33.5527 40.179 32.7516 40.179C32.0144 40.179 31.3517 40.0447 30.7637 39.7763C30.1799 39.5078 29.7175 39.1179 29.3766 38.6065C29.0399 38.0909 28.8716 37.4645 28.8716 36.7273H30.834C30.834 37.0895 30.9171 37.4027 31.0833 37.6669C31.2537 37.9311 31.486 38.1378 31.78 38.2869C32.0783 38.4318 32.4192 38.5043 32.8027 38.5043C33.2203 38.5043 33.574 38.4169 33.8638 38.2422C34.1578 38.0632 34.3816 37.8011 34.535 37.456C34.6884 37.1108 34.7651 36.6889 34.7651 36.1903V26.9091ZM42.3125 40.2173C41.6903 40.2173 41.1278 40.1023 40.625 39.8722C40.1222 39.6378 39.7237 39.299 39.4297 38.8558C39.1399 38.4126 38.995 37.8693 38.995 37.2259C38.995 36.6719 39.1016 36.2159 39.3146 35.858C39.5277 35.5 39.8153 35.2166 40.1776 35.0078C40.5398 34.799 40.9446 34.6413 41.392 34.5348C41.8395 34.4283 42.2954 34.3473 42.7599 34.2919C43.348 34.2237 43.8253 34.1683 44.1918 34.1257C44.5582 34.0788 44.8246 34.0043 44.9908 33.902C45.157 33.7997 45.2401 33.6335 45.2401 33.4034V33.3587C45.2401 32.8004 45.0824 32.3679 44.767 32.0611C44.456 31.7543 43.9915 31.6009 43.3736 31.6009C42.7301 31.6009 42.223 31.7436 41.8523 32.0291C41.4858 32.3104 41.2322 32.6236 41.0916 32.9688L39.2954 32.5597C39.5085 31.9631 39.8196 31.4815 40.2287 31.1151C40.642 30.7443 41.1172 30.4759 41.6541 30.3097C42.191 30.1392 42.7557 30.054 43.348 30.054C43.7401 30.054 44.1555 30.1009 44.5945 30.1946C45.0376 30.2841 45.451 30.4503 45.8345 30.6932C46.2223 30.9361 46.5398 31.2834 46.7869 31.7351C47.0341 32.1825 47.1577 32.7642 47.1577 33.4801V40H45.2912V38.6577H45.2145C45.0909 38.9048 44.9055 39.1477 44.6584 39.3864C44.4112 39.625 44.0937 39.8232 43.706 39.9808C43.3182 40.1385 42.8537 40.2173 42.3125 40.2173ZM42.728 38.6832C43.2564 38.6832 43.7081 38.5788 44.0831 38.37C44.4624 38.1612 44.75 37.8885 44.946 37.5518C45.1463 37.2109 45.2464 36.8466 45.2464 36.4588V35.1932C45.1783 35.2614 45.0462 35.3253 44.8501 35.3849C44.6584 35.4403 44.4389 35.4893 44.1918 35.532C43.9446 35.5703 43.7038 35.6065 43.4695 35.6406C43.2351 35.6705 43.0391 35.696 42.8814 35.7173C42.5106 35.7642 42.1719 35.843 41.8651 35.9538C41.5625 36.0646 41.3196 36.2244 41.1364 36.4332C40.9574 36.6378 40.8679 36.9105 40.8679 37.2514C40.8679 37.7244 41.0426 38.0824 41.392 38.3253C41.7415 38.5639 42.1868 38.6832 42.728 38.6832ZM57.7509 30.1818L54.1905 40H52.1451L48.5783 30.1818H50.6301L53.1166 37.7372H53.2189L55.699 30.1818H57.7509ZM62.123 40.2173C61.5009 40.2173 60.9384 40.1023 60.4355 39.8722C59.9327 39.6378 59.5343 39.299 59.2402 38.8558C58.9505 38.4126 58.8056 37.8693 58.8056 37.2259C58.8056 36.6719 58.9121 36.2159 59.1252 35.858C59.3382 35.5 59.6259 35.2166 59.9881 35.0078C60.3503 34.799 60.7551 34.6413 61.2026 34.5348C61.65 34.4283 62.106 34.3473 62.5705 34.2919C63.1586 34.2237 63.6358 34.1683 64.0023 34.1257C64.3688 34.0788 64.6351 34.0043 64.8013 33.902C64.9675 33.7997 65.0506 33.6335 65.0506 33.4034V33.3587C65.0506 32.8004 64.8929 32.3679 64.5776 32.0611C64.2665 31.7543 63.802 31.6009 63.1841 31.6009C62.5407 31.6009 62.0336 31.7436 61.6628 32.0291C61.2963 32.3104 61.0428 32.6236 60.9022 32.9688L59.106 32.5597C59.3191 31.9631 59.6301 31.4815 60.0392 31.1151C60.4526 30.7443 60.9277 30.4759 61.4647 30.3097C62.0016 30.1392 62.5662 30.054 63.1586 30.054C63.5506 30.054 63.9661 30.1009 64.405 30.1946C64.8482 30.2841 65.2615 30.4503 65.6451 30.6932C66.0328 30.9361 66.3503 31.2834 66.5975 31.7351C66.8446 32.1825 66.9682 32.7642 66.9682 33.4801V40H65.1017V38.6577H65.025C64.9014 38.9048 64.7161 39.1477 64.4689 39.3864C64.2218 39.625 63.9043 39.8232 63.5165 39.9808C63.1287 40.1385 62.6642 40.2173 62.123 40.2173ZM62.5385 38.6832C63.0669 38.6832 63.5186 38.5788 63.8936 38.37C64.2729 38.1612 64.5605 37.8885 64.7566 37.5518C64.9568 37.2109 65.057 36.8466 65.057 36.4588V35.1932C64.9888 35.2614 64.8567 35.3253 64.6607 35.3849C64.4689 35.4403 64.2495 35.4893 64.0023 35.532C63.7551 35.5703 63.5144 35.6065 63.28 35.6406C63.0456 35.6705 62.8496 35.696 62.6919 35.7173C62.3212 35.7642 61.9824 35.843 61.6756 35.9538C61.373 36.0646 61.1301 36.2244 60.9469 36.4332C60.7679 36.6378 60.6784 36.9105 60.6784 37.2514C60.6784 37.7244 60.8532 38.0824 61.2026 38.3253C61.552 38.5639 61.9973 38.6832 62.5385 38.6832ZM76.8072 30.348C76.739 29.7429 76.4577 29.2741 75.9634 28.9418C75.4691 28.6051 74.8469 28.4368 74.0969 28.4368C73.56 28.4368 73.0955 28.522 72.7035 28.6925C72.3114 28.8587 72.0067 29.0888 71.7894 29.3828C71.5763 29.6726 71.4698 30.0028 71.4698 30.3736C71.4698 30.6847 71.5423 30.9531 71.6871 31.179C71.8363 31.4048 72.0302 31.5945 72.2688 31.7479C72.5117 31.897 72.7717 32.0227 73.0486 32.125C73.3256 32.223 73.592 32.304 73.8477 32.3679L75.1261 32.7003C75.5437 32.8026 75.9719 32.9411 76.4109 33.1158C76.8498 33.2905 77.2567 33.5206 77.6317 33.8061C78.0067 34.0916 78.3093 34.4453 78.5394 34.8672C78.7738 35.2891 78.891 35.794 78.891 36.3821C78.891 37.1236 78.6992 37.782 78.3157 38.3572C77.9364 38.9325 77.3846 39.3864 76.6602 39.7188C75.94 40.0511 75.0685 40.2173 74.0458 40.2173C73.0657 40.2173 72.2177 40.0618 71.5018 39.7507C70.7859 39.4396 70.2255 38.9986 69.8207 38.4276C69.4158 37.8523 69.1921 37.1705 69.1495 36.3821H71.131C71.1694 36.8551 71.3228 37.2493 71.5913 37.5646C71.864 37.8757 72.2113 38.108 72.6332 38.2614C73.0593 38.4105 73.5259 38.4851 74.033 38.4851C74.5913 38.4851 75.0877 38.3977 75.5224 38.223C75.9613 38.044 76.3065 37.7969 76.5579 37.4815C76.8093 37.1619 76.935 36.7891 76.935 36.3629C76.935 35.9751 76.8242 35.6577 76.6026 35.4105C76.3853 35.1634 76.0891 34.9588 75.7141 34.7969C75.3434 34.6349 74.9236 34.4922 74.4549 34.3686L72.908 33.9467C71.8597 33.6612 71.0288 33.2415 70.4151 32.6875C69.8057 32.1335 69.5011 31.4006 69.5011 30.4886C69.5011 29.7344 69.7056 29.076 70.1147 28.5135C70.5238 27.951 71.0778 27.5142 71.7766 27.2031C72.4755 26.8878 73.2638 26.7301 74.1417 26.7301C75.028 26.7301 75.81 26.8857 76.4876 27.1967C77.1694 27.5078 77.7063 27.9361 78.0984 28.4815C78.4904 29.0227 78.695 29.6449 78.712 30.348H76.8072ZM85.2335 40.1982C84.2832 40.1982 83.465 39.983 82.7789 39.5526C82.0971 39.1179 81.573 38.5192 81.2065 37.7564C80.84 36.9936 80.6568 36.12 80.6568 35.1357C80.6568 34.1385 80.8443 33.2585 81.2193 32.4957C81.5943 31.7287 82.1227 31.13 82.8045 30.6996C83.4863 30.2692 84.2896 30.054 85.2143 30.054C85.96 30.054 86.6248 30.1925 87.2086 30.4695C87.7924 30.7422 88.2633 31.1257 88.6213 31.62C88.9835 32.1143 89.1987 32.6918 89.2669 33.3523H87.4068C87.3045 32.892 87.0701 32.4957 86.7037 32.1634C86.3414 31.831 85.8556 31.6648 85.2463 31.6648C84.7136 31.6648 84.247 31.8054 83.8464 32.0866C83.4501 32.3636 83.1412 32.7599 82.9196 33.2756C82.698 33.7869 82.5872 34.392 82.5872 35.0909C82.5872 35.8068 82.6958 36.4247 82.9132 36.9446C83.1305 37.4645 83.4373 37.8672 83.8336 38.1527C84.2342 38.4382 84.7051 38.581 85.2463 38.581C85.6085 38.581 85.9366 38.5149 86.2306 38.3828C86.5289 38.2464 86.7782 38.0526 86.9785 37.8011C87.1831 37.5497 87.3258 37.2472 87.4068 36.8935H89.2669C89.1987 37.5284 88.992 38.0952 88.6468 38.5938C88.3017 39.0923 87.8393 39.4844 87.2598 39.7699C86.6845 40.0554 86.009 40.1982 85.2335 40.1982ZM91.3107 40V30.1818H93.158V31.7415H93.2603C93.4393 31.2131 93.7546 30.7976 94.2063 30.495C94.6623 30.1882 95.1779 30.0348 95.7532 30.0348C95.8725 30.0348 96.0131 30.0391 96.1751 30.0476C96.3413 30.0561 96.4712 30.0668 96.565 30.0795V31.9077C96.4883 31.8864 96.3519 31.8629 96.1559 31.8374C95.9599 31.8075 95.7638 31.7926 95.5678 31.7926C95.1161 31.7926 94.7134 31.8885 94.3597 32.0803C94.0103 32.2678 93.7333 32.5298 93.5288 32.8665C93.3242 33.1989 93.2219 33.5781 93.2219 34.0043V40H91.3107ZM98.2189 40V30.1818H100.13V40H98.2189ZM99.1841 28.6669C98.8517 28.6669 98.5662 28.5561 98.3276 28.3345C98.0932 28.1087 97.976 27.8402 97.976 27.5291C97.976 27.2138 98.0932 26.9453 98.3276 26.7237C98.5662 26.4979 98.8517 26.3849 99.1841 26.3849C99.5165 26.3849 99.7999 26.4979 100.034 26.7237C100.273 26.9453 100.392 27.2138 100.392 27.5291C100.392 27.8402 100.273 28.1087 100.034 28.3345C99.7999 28.5561 99.5165 28.6669 99.1841 28.6669ZM102.701 43.6818V30.1818H104.568V31.7734H104.728C104.838 31.5689 104.998 31.3324 105.207 31.0639C105.416 30.7955 105.706 30.5611 106.076 30.3608C106.447 30.1562 106.937 30.054 107.547 30.054C108.339 30.054 109.047 30.2543 109.669 30.6548C110.291 31.0554 110.779 31.6328 111.132 32.3871C111.49 33.1413 111.669 34.049 111.669 35.1101C111.669 36.1712 111.493 37.081 111.139 37.8395C110.785 38.5937 110.299 39.1754 109.681 39.5845C109.064 39.9893 108.358 40.1918 107.566 40.1918C106.969 40.1918 106.481 40.0916 106.102 39.8913C105.727 39.6911 105.433 39.4567 105.22 39.1882C105.007 38.9197 104.843 38.6811 104.728 38.4723H104.613V43.6818H102.701ZM104.574 35.0909C104.574 35.7812 104.674 36.3864 104.875 36.9062C105.075 37.4261 105.365 37.8331 105.744 38.1271C106.123 38.4169 106.588 38.5618 107.137 38.5618C107.708 38.5618 108.186 38.4105 108.569 38.108C108.953 37.8011 109.243 37.3857 109.439 36.8615C109.639 36.3374 109.739 35.7472 109.739 35.0909C109.739 34.4432 109.641 33.8615 109.445 33.3459C109.253 32.8303 108.963 32.4233 108.576 32.125C108.192 31.8267 107.713 31.6776 107.137 31.6776C106.583 31.6776 106.115 31.8203 105.731 32.1058C105.352 32.3913 105.064 32.7898 104.868 33.3011C104.672 33.8125 104.574 34.4091 104.574 35.0909ZM118.394 30.1818V31.7159H113.031V30.1818H118.394ZM114.469 27.8295H116.38V37.1172C116.38 37.4879 116.436 37.767 116.547 37.9545C116.657 38.1378 116.8 38.2635 116.975 38.3317C117.154 38.3956 117.348 38.4276 117.556 38.4276C117.71 38.4276 117.844 38.4169 117.959 38.3956C118.074 38.3743 118.164 38.3572 118.228 38.3445L118.573 39.9233C118.462 39.9659 118.304 40.0085 118.1 40.0511C117.895 40.098 117.64 40.1236 117.333 40.1278C116.83 40.1364 116.361 40.0469 115.926 39.8594C115.492 39.6719 115.14 39.3821 114.872 38.9901C114.603 38.598 114.469 38.1058 114.469 37.5135V27.8295Z" fill="black"/>
<defs>
<filter id="filter0_d_627_1900" x="0" y="0" width="296" height="152" filterUnits="userSpaceOnUse" color-interpolation-filters="sRGB">
<feFlood flood-opacity="0" result="BackgroundImageFix"/>
<feColorMatrix in="SourceAlpha" type="matrix" values="0 0 0 0 0 0 0 0 0 0 0 0 0 0 0 0 0 0 127 0" result="hardAlpha"/>
<feOffset dy="6"/>
<feGaussianBlur stdDeviation="6"/>
<feColorMatrix type="matrix" values="0 0 0 0 0 0 0 0 0 0 0 0 0 0 0 0 0 0 0.04 0"/>
<feBlend mode="normal" in2="BackgroundImageFix" result="effect1_dropShadow_627_1900"/>
<feBlend mode="normal" in="SourceGraphic" in2="effect1_dropShadow_627_1900" result="shape"/>
</filter>
<filter id="filter1_d_627_1900" x="0" y="90" width="296" height="58" filterUnits="userSpaceOnUse" color-interpolation-filters="sRGB">
<feFlood flood-opacity="0" result="BackgroundImageFix"/>
<feColorMatrix in="SourceAlpha" type="matrix" values="0 0 0 0 0 0 0 0 0 0 0 0 0 0 0 0 0 0 127 0" result="hardAlpha"/>
<feOffset dy="2"/>
<feGaussianBlur stdDeviation="6"/>
<feColorMatrix type="matrix" values="0 0 0 0 0 0 0 0 0 0 0 0 0 0 0 0 0 0 0.04 0"/>
<feBlend mode="normal" in2="BackgroundImageFix" result="effect1_dropShadow_627_1900"/>
<feBlend mode="normal" in="SourceGraphic" in2="effect1_dropShadow_627_1900" result="shape"/>
</filter>
<clipPath id="clip0_627_1900">
<rect width="18" height="18" fill="white" transform="translate(174.687 108)"/>
</clipPath>
</defs>
</svg>
