<svg width="19" height="18" viewBox="0 0 19 18" fill="none" xmlns="http://www.w3.org/2000/svg">
<path d="M12.5391 2.25C11.2341 2.25 9.98156 2.8575 9.16406 3.8175C8.34656 2.8575 7.09406 2.25 5.78906 2.25C3.47906 2.25 1.66406 4.065 1.66406 6.375C1.66406 9.21 4.21406 11.52 8.07656 15.03L9.16406 16.0125L10.2516 15.0225C14.1141 11.52 16.6641 9.21 16.6641 6.375C16.6641 4.065 14.8491 2.25 12.5391 2.25ZM9.23906 13.9125L9.16406 13.9875L9.08906 13.9125C5.51906 10.68 3.16406 8.5425 3.16406 6.375C3.16406 4.875 4.28906 3.75 5.78906 3.75C6.94406 3.75 8.06906 4.4925 8.46656 5.52H9.86906C10.2591 4.4925 11.3841 3.75 12.5391 3.75C14.0391 3.75 15.1641 4.875 15.1641 6.375C15.1641 8.5425 12.8091 10.68 9.23906 13.9125Z" fill="white"/>
</svg>
