<svg width="24" height="24" viewBox="0 0 24 24" fill="none" xmlns="http://www.w3.org/2000/svg">
<path d="M4.98292 7.19704C6.19132 7.19704 7.17092 6.21744 7.17092 5.00904C7.17092 3.80065 6.19132 2.82104 4.98292 2.82104C3.77452 2.82104 2.79492 3.80065 2.79492 5.00904C2.79492 6.21744 3.77452 7.19704 4.98292 7.19704Z" fill="black"/>
<path d="M9.23722 8.85505V20.9941H13.0062V14.9911C13.0062 13.4071 13.3042 11.8731 15.2682 11.8731C17.2052 11.8731 17.2292 13.6841 17.2292 15.0911V20.9951H21.0002V14.3381C21.0002 11.0681 20.2962 8.55505 16.4742 8.55505C14.6392 8.55505 13.4092 9.56205 12.9062 10.5151H12.8552V8.85505H9.23722ZM3.09521 8.85505H6.87021V20.9941H3.09521V8.85505Z" fill="black"/>
</svg>
