<svg width="163" height="33" viewBox="0 0 163 33" fill="none" xmlns="http://www.w3.org/2000/svg">
<path d="M25.2015 1.38459V32.0769H19.7208L4.85692 8.57537V32.0769H0.0776923V1.38459H6.08462L20.4223 24.36V1.38459H25.2015ZM52.4208 20.94C52.4208 24.4769 51.4415 27.2977 49.4831 29.4023C47.5246 31.5069 44.85 32.5592 41.4592 32.5592C38.0684 32.5592 35.3938 31.5069 33.4354 29.4023C31.4769 27.2977 30.4977 24.4769 30.4977 20.94C30.4977 17.4323 31.4915 14.6115 33.4792 12.4777C35.4669 10.3438 38.1269 9.2769 41.4592 9.2769C44.7915 9.2769 47.4515 10.3438 49.4392 12.4777C51.4269 14.6115 52.4208 17.4323 52.4208 20.94ZM36.7677 15.5031C35.6861 16.8184 35.1454 18.6308 35.1454 20.94C35.1454 23.2492 35.7008 25.0615 36.8115 26.3769C37.9515 27.6923 39.53 28.35 41.5469 28.35C43.5346 28.35 45.0692 27.6923 46.1508 26.3769C47.2323 25.0615 47.7731 23.2492 47.7731 20.94C47.7731 18.6308 47.2031 16.8184 46.0631 15.5031C44.9523 14.1584 43.4031 13.4861 41.4154 13.4861C39.4277 13.4861 37.8784 14.1584 36.7677 15.5031Z" fill="#1B1B1B"/>
<path d="M68.4554 28.0869V32.0769H65.3423C62.887 32.0769 61.1623 31.5654 60.1685 30.5423C59.1747 29.49 58.6777 27.6631 58.6777 25.0615V13.7492H54.4247V9.71536H58.6777V4.32229L63.3254 3.0946V9.71536H67.9293V13.7492H63.3254V25.2369C63.3254 27.1369 64.29 28.0869 66.2193 28.0869H68.4554ZM92.1752 17.6077V32.0769H87.5713V18.09C87.5713 16.6577 87.1767 15.5177 86.3875 14.67C85.5982 13.8223 84.5167 13.3984 83.1429 13.3984C81.4182 13.3984 80.0444 13.9977 79.0213 15.1961C78.0275 16.3946 77.5306 18.0315 77.5306 20.1069V32.0769H72.8829V0.902288H77.5306V13.2231C78.2906 11.82 79.1967 10.8115 80.249 10.1977C81.3306 9.58383 82.7044 9.2769 84.3706 9.2769C86.8844 9.2769 88.8136 9.99306 90.1582 11.4254C91.5029 12.8284 92.1752 14.8892 92.1752 17.6077ZM98.0324 5.81306V0.463827H102.987V5.81306H98.0324ZM98.1639 32.0769V9.71536H102.812V32.0769H98.1639ZM128.359 17.6077V32.0769H123.755V18.09C123.755 16.6577 123.36 15.5177 122.571 14.67C121.782 13.8223 120.7 13.3984 119.326 13.3984C117.602 13.3984 116.228 13.9977 115.205 15.1961C114.211 16.3946 113.714 18.0315 113.714 20.1069V32.0769H109.066V9.71536H113.714V13.0477C114.474 11.7323 115.395 10.7823 116.476 10.1977C117.558 9.58383 118.917 9.2769 120.554 9.2769C123.068 9.2769 124.997 9.99306 126.342 11.4254C127.686 12.8284 128.359 14.8892 128.359 17.6077ZM155.13 32.0769H149.606L142.547 22.65L139.17 26.2454V32.0769H134.523V0.902288H139.17V20.2823L148.466 9.71536H154.604L145.616 19.3615L155.13 32.0769Z" fill="#706E64"/>
<path d="M156.941 32.0769V26.5961H162.246V32.0769H156.941Z" fill="black"/>
</svg>
