<svg width="82" height="17" viewBox="0 0 82 17" fill="none" xmlns="http://www.w3.org/2000/svg">
<path d="M12.652 0.599999V16H9.902L2.444 4.208V16H0.046V0.599999H3.06L10.254 12.128V0.599999H12.652ZM26.3094 10.412C26.3094 12.1867 25.818 13.602 24.8354 14.658C23.8527 15.714 22.5107 16.242 20.8094 16.242C19.108 16.242 17.766 15.714 16.7834 14.658C15.8007 13.602 15.3094 12.1867 15.3094 10.412C15.3094 8.652 15.808 7.23667 16.8054 6.166C17.8027 5.09533 19.1374 4.56 20.8094 4.56C22.4814 4.56 23.816 5.09533 24.8134 6.166C25.8107 7.23667 26.3094 8.652 26.3094 10.412ZM18.4554 7.684C17.9127 8.344 17.6414 9.25333 17.6414 10.412C17.6414 11.5707 17.92 12.48 18.4774 13.14C19.0494 13.8 19.8414 14.13 20.8534 14.13C21.8507 14.13 22.6207 13.8 23.1634 13.14C23.706 12.48 23.9774 11.5707 23.9774 10.412C23.9774 9.25333 23.6914 8.344 23.1194 7.684C22.562 7.00933 21.7847 6.672 20.7874 6.672C19.79 6.672 19.0127 7.00933 18.4554 7.684ZM34.3548 13.998V16H32.7928C31.5608 16 30.6955 15.7433 30.1968 15.23C29.6982 14.702 29.4488 13.7853 29.4488 12.48V6.804H27.3148V4.78H29.4488V2.074L31.7808 1.458V4.78H34.0908V6.804H31.7808V12.568C31.7808 13.5213 32.2648 13.998 33.2328 13.998H34.3548ZM46.2563 8.74V16H43.9463V8.982C43.9463 8.26333 43.7483 7.69133 43.3523 7.266C42.9563 6.84067 42.4136 6.628 41.7243 6.628C40.859 6.628 40.1696 6.92867 39.6563 7.53C39.1576 8.13133 38.9083 8.95267 38.9083 9.994V16H36.5763V0.357999H38.9083V6.54C39.2896 5.836 39.7443 5.33 40.2723 5.022C40.815 4.714 41.5043 4.56 42.3403 4.56C43.6016 4.56 44.5696 4.91933 45.2443 5.638C45.919 6.342 46.2563 7.376 46.2563 8.74ZM49.1952 2.822V0.138H51.6812V2.822H49.1952ZM49.2612 16V4.78H51.5932V16H49.2612ZM64.4115 8.74V16H62.1015V8.982C62.1015 8.26333 61.9035 7.69133 61.5075 7.266C61.1115 6.84067 60.5688 6.628 59.8795 6.628C59.0141 6.628 58.3248 6.92867 57.8115 7.53C57.3128 8.13133 57.0635 8.95267 57.0635 9.994V16H54.7315V4.78H57.0635V6.452C57.4448 5.792 57.9068 5.31533 58.4495 5.022C58.9921 4.714 59.6741 4.56 60.4955 4.56C61.7568 4.56 62.7248 4.91933 63.3995 5.638C64.0741 6.342 64.4115 7.376 64.4115 8.74ZM77.8444 16H75.0724L71.5304 11.27L69.8364 13.074V16H67.5044V0.357999H69.8364V10.082L74.5004 4.78H77.5804L73.0704 9.62L77.8444 16ZM78.7527 16V13.25H81.4147V16H78.7527Z" fill="white"/>
</svg>
