<svg width="142" height="29" viewBox="0 0 142 29" fill="none" xmlns="http://www.w3.org/2000/svg">
<path d="M22.308 1.4V28H17.558L4.676 7.632V28H0.534V1.4H5.74L18.166 21.312V1.4H22.308ZM45.898 18.348C45.898 21.4133 45.0493 23.858 43.352 25.682C41.6547 27.506 39.3367 28.418 36.398 28.418C33.4593 28.418 31.1413 27.506 29.444 25.682C27.7467 23.858 26.898 21.4133 26.898 18.348C26.898 15.308 27.7593 12.8633 29.482 11.014C31.2047 9.16467 33.51 8.24 36.398 8.24C39.286 8.24 41.5913 9.16467 43.314 11.014C45.0367 12.8633 45.898 15.308 45.898 18.348ZM32.332 13.636C31.3947 14.776 30.926 16.3467 30.926 18.348C30.926 20.3493 31.4073 21.92 32.37 23.06C33.358 24.2 34.726 24.77 36.474 24.77C38.1967 24.77 39.5267 24.2 40.464 23.06C41.4013 21.92 41.87 20.3493 41.87 18.348C41.87 16.3467 41.376 14.776 40.388 13.636C39.4253 12.4707 38.0827 11.888 36.36 11.888C34.6373 11.888 33.2947 12.4707 32.332 13.636Z" fill="#1B1B1B"/>
<path d="M59.7947 24.542V28H57.0967C54.9687 28 53.474 27.5567 52.6127 26.67C51.7514 25.758 51.3207 24.1747 51.3207 21.92V12.116H47.6347V8.62H51.3207V3.946L55.3487 2.882V8.62H59.3387V12.116H55.3487V22.072C55.3487 23.7187 56.1847 24.542 57.8567 24.542H59.7947ZM80.3518 15.46V28H76.3618V15.878C76.3618 14.6367 76.0198 13.6487 75.3358 12.914C74.6518 12.1793 73.7145 11.812 72.5238 11.812C71.0291 11.812 69.8385 12.3313 68.9518 13.37C68.0905 14.4087 67.6598 15.8273 67.6598 17.626V28H63.6318V0.981999H67.6598V11.66C68.3185 10.444 69.1038 9.57 70.0158 9.038C70.9531 8.506 72.1438 8.24 73.5878 8.24C75.7665 8.24 77.4385 8.86067 78.6038 10.102C79.7691 11.318 80.3518 13.104 80.3518 15.46ZM85.4281 5.238V0.601999H89.7221V5.238H85.4281ZM85.5421 28V8.62H89.5701V28H85.5421ZM111.711 15.46V28H107.721V15.878C107.721 14.6367 107.379 13.6487 106.695 12.914C106.011 12.1793 105.073 11.812 103.883 11.812C102.388 11.812 101.197 12.3313 100.311 13.37C99.4494 14.4087 99.0187 15.8273 99.0187 17.626V28H94.9907V8.62H99.0187V11.508C99.6774 10.368 100.475 9.54467 101.413 9.038C102.35 8.506 103.528 8.24 104.947 8.24C107.125 8.24 108.797 8.86067 109.963 10.102C111.128 11.318 111.711 13.104 111.711 15.46ZM134.913 28H130.125L124.007 19.83L121.081 22.946V28H117.053V0.981999H121.081V17.778L129.137 8.62H134.457L126.667 16.98L134.913 28Z" fill="#706E64"/>
<path d="M136.482 28V23.25H141.08V28H136.482Z" fill="black"/>
</svg>
